<?xml version="1.0" encoding="utf-8"?>
<!-- Generator: Adobe Illustrator 23.0.1, SVG Export Plug-In . SVG Version: 6.00 Build 0)  -->
<svg version="1.1" id="Layer_1" xmlns="http://www.w3.org/2000/svg" xmlns:xlink="http://www.w3.org/1999/xlink" x="0px" y="0px"
	 viewBox="0 0 1600 112.2" style="enable-background:new 0 0 1600 112.2;" xml:space="preserve">
<style type="text/css">
	.st0{fill-opacity:5.000000e-02;}
	.st1{fill:#061F40;}
	.st2{fill:#061F40;fill-opacity:0.1;}
</style>
<path class="st0" d="M-0.1,0L1600,3.5c0,0,0.1,10.5,0,38C1188.5,227.5,660.1-62-0.1,40C-0.1,0-0.1,0-0.1,0z"/>
<path class="st1" d="M-0.1-0.4h1600c0,0,0,8.4,0,42c-491.9,99-1101.9-116-1600,0C0,13.7-0.1-0.4-0.1-0.4z"/>
<path class="st2" d="M885.4-0.3L-0.1-0.6c0,0,0,14.8,0,42.6c227.3,72.8,520.7-43.9,885.5-4C885.4-6.4,885.4-0.3,885.4-0.3z"/>
</svg>
