<svg width="64" height="71" viewBox="0 0 64 71" fill="none" xmlns="http://www.w3.org/2000/svg">
<path d="M23.8235 51.5649C23.5847 50.985 23.346 50.4051 22.8686 49.9412C22.2718 49.2453 21.3169 49.1293 20.4814 49.7092C19.6459 50.2891 19.6459 51.101 20.1234 51.6809C20.8395 52.4927 21.7944 53.1886 22.7492 53.6525C24.8977 54.6963 27.0461 55.3922 29.1946 56.3201C30.1494 52.1448 31.4624 47.7375 28.2397 43.5623C26.9268 41.7066 25.7332 39.8509 24.5396 37.8792C24.4202 37.8792 24.3009 37.9952 24.1815 37.9952C24.4202 38.6911 24.5396 39.503 25.017 40.0829C25.9719 41.8226 27.1655 43.4463 28.1203 45.186C29.4333 47.3896 29.672 49.7092 29.0752 52.1448C28.9558 52.7247 28.7171 53.1886 28.2397 53.7685C28.1203 52.9566 28.1203 52.2608 28.001 51.4489C27.2848 47.1576 23.2267 44.2581 18.8104 45.186C16.4233 45.6499 14.8716 47.3896 14.3942 49.7092C14.3942 49.9412 14.2748 50.2891 14.2748 50.637C12.9619 49.7092 12.7232 46.2298 13.9167 44.4901C15.2297 42.4025 17.1394 41.4746 19.4072 41.1267C17.7362 39.8509 16.1846 38.4591 14.5135 37.1834C14.5135 37.2994 14.3942 37.6473 14.2748 37.8792C13.2006 41.2427 9.38115 43.4463 6.03913 42.7504C3.77132 42.1705 2.21967 40.1988 2.33903 37.8792C2.45839 36.2555 3.53261 34.9798 5.20362 34.5158C7.11335 34.0519 9.14243 34.7478 9.97794 36.1395C9.5005 36.2555 9.02307 36.2555 8.54564 36.3715C7.71014 36.6035 7.11335 37.0674 7.35206 37.9952C7.47142 38.9231 8.30693 39.387 9.26179 39.155C10.5747 38.9231 11.5296 38.1112 12.1264 36.9514C13.2006 35.0957 13.0812 33.0081 12.7232 31.0364C12.7232 30.8045 12.6038 30.4565 12.7232 30.1086C12.9619 30.3406 13.0812 30.6885 13.32 30.9205C13.9167 31.5004 14.5135 32.0803 15.349 32.5442C16.4233 33.1241 17.7362 32.8921 18.4524 31.9643C19.1685 31.0364 19.1685 29.8766 18.333 28.8328C17.1394 27.2091 16.0652 25.5854 14.991 23.9617C14.5135 23.2658 14.3942 22.3379 14.0361 21.5261C8.30692 23.1498 6.75527 28.1369 10.0973 34.5158C6.87463 32.3122 3.53261 32.5442 0.071228 34.0519C0.190586 32.3122 0.787376 31.7323 4.1294 30.1086C4.1294 28.8328 4.01004 27.673 4.1294 26.5132C4.72619 22.222 8.06821 19.3225 12.6038 18.7426C13.5587 18.6266 13.7974 18.2786 14.0361 17.4668C14.6329 14.5673 16.5426 12.8276 19.0491 12.9436C19.1685 12.9436 19.4072 12.9436 19.5266 12.9436C21.0782 13.8714 22.3912 13.1755 23.8235 12.4796C24.5396 12.1317 25.4945 12.0157 26.33 12.0157C27.2848 12.0157 27.4042 11.5518 27.4042 10.8559C27.2848 9.69613 26.0913 9.00025 24.8977 9.58015C24.3009 9.81211 23.8235 10.276 23.346 10.624C23.1073 8.42035 26.2106 6.79663 29.4333 7.37653C29.4333 7.26055 29.4333 7.26055 29.4333 7.14457C28.2397 5.28889 28.3591 5.28889 29.672 3.66518C30.0301 3.20126 30.5075 2.62136 30.7462 2.15744C31.1043 1.57754 31.2237 0.997637 31.5817 0.301758C31.9398 0.997637 32.0592 1.57754 32.4172 2.15744C32.8947 2.9693 33.4914 3.78116 34.0882 4.36105C35.1625 5.05693 35.2818 5.63683 34.685 6.33271C34.4463 6.68065 34.2076 7.02859 33.9689 7.49251C35.998 7.02859 37.669 7.37653 39.1013 8.53633C39.6981 9.00025 40.0561 9.81211 40.5336 10.508C40.4142 10.624 40.2949 10.624 40.1755 10.7399C39.6981 10.392 39.34 10.0441 38.8626 9.69613C37.9077 9.11623 36.8335 9.46417 36.356 10.276C35.8786 11.2039 36.2367 11.8997 37.3109 12.0157C38.7432 12.2477 40.0561 12.8276 41.3691 13.1755C41.7272 13.2915 42.2046 13.4075 42.4433 13.2915C45.5466 12.1317 48.1725 13.0595 49.008 16.075C49.4854 17.9307 50.4403 18.5106 52.2307 18.8585C57.363 20.0183 59.9889 23.9617 59.3921 29.0648C59.2728 29.8766 59.5115 30.1086 60.2276 30.4565C61.7793 31.0364 63.0922 31.9643 63.5697 34.0519C59.9889 32.5442 56.6469 32.1962 53.4242 34.5158C55.2146 31.6163 56.2888 28.7168 54.4985 25.4694C53.4242 23.4977 51.6339 22.3379 49.3661 21.4101C48.6499 24.4256 47.0983 26.8612 45.0692 29.0648C44.353 29.8766 44.353 31.1524 44.9498 31.9643C45.5466 32.7761 46.7402 33.2401 47.8144 32.7761C48.6499 32.4282 49.3661 31.7323 50.0822 31.1524C50.3209 30.9205 50.5596 30.5725 50.9177 30.2246C50.7984 31.1524 50.5596 32.0803 50.5596 33.1241C50.4403 34.8638 50.7984 36.6035 52.1113 37.8792C52.7081 38.4591 53.5436 38.9231 54.2597 39.155C55.2146 39.387 55.9307 38.9231 56.1695 37.9952C56.4082 37.0674 55.8114 36.4875 54.9759 36.3715C54.7372 36.3715 54.2597 36.3715 53.7823 36.2555C54.6178 34.8638 56.4082 34.1679 58.3179 34.5158C59.9889 34.8638 61.1825 36.0236 61.4212 37.5313C61.7793 40.7787 59.1534 43.3303 55.8114 42.8664C52.5887 42.4025 50.4403 40.7787 49.4854 37.6473C49.4854 37.4153 49.3661 37.2993 49.3661 37.0674C49.3661 37.0674 49.3661 37.0674 49.4854 37.0674C47.8144 38.4591 46.1434 39.7349 44.5917 41.1267C47.337 41.7066 49.7241 42.8664 50.5596 45.8819C51.0371 47.6216 50.679 49.2453 49.8435 50.753C49.7241 50.637 49.6048 50.5211 49.6048 50.5211C49.4854 45.9978 44.8305 44.2581 41.1304 45.5339C38.0271 46.5777 35.998 49.2453 35.8786 52.7247C35.8786 53.0726 35.8786 53.5365 35.6399 53.8845C34.8044 52.0288 34.327 50.0571 34.9237 48.2015C35.5205 46.3458 36.4754 44.6061 37.4303 42.8664C38.0271 41.8226 38.7432 40.7787 39.34 39.7349C39.5787 39.155 39.6981 38.5751 39.9368 37.9952C39.6981 37.9952 39.5787 37.9952 39.5787 37.9952C37.9077 40.5468 36.2367 43.2143 34.685 45.7659C33.7302 47.3896 33.6108 49.2453 33.9689 50.985C34.2076 52.8407 34.5657 54.6963 34.8044 56.3201C37.3109 55.2762 39.6981 54.4644 41.9659 53.4206C42.682 53.0726 43.2788 52.6087 43.7562 52.0288C44.4724 51.2169 44.353 50.1731 43.6369 49.7092C42.682 49.1293 41.6078 49.2453 41.011 50.2891C40.7723 50.637 40.6529 51.101 40.4142 51.5649C39.4594 50.637 39.34 49.2453 40.2949 47.9695C41.4884 46.2298 43.995 45.6499 46.3821 46.6937C48.4112 47.5056 49.3661 49.3613 48.8886 51.4489C48.4112 53.6525 46.9789 55.1603 44.7111 55.7402C42.9207 56.2041 41.1304 56.436 39.34 56.9C38.0271 57.2479 36.7141 57.7118 35.2818 58.2917C36.1173 60.1474 36.8335 61.8871 37.5496 63.5108C36.5948 64.6706 35.4012 65.7144 34.4463 66.9902C33.6108 68.15 32.8947 69.5418 32.1785 70.8175C31.4624 69.6577 30.8656 68.266 29.9107 66.9902C29.0752 65.7144 27.8816 64.6706 26.8074 63.5108C27.5236 62.0031 28.2397 60.2634 29.0752 58.2917C27.6429 57.8278 26.33 57.2479 25.017 56.9C23.4654 56.552 21.7944 56.3201 20.2427 55.9721C17.2588 55.2762 15.349 52.8407 15.4684 50.1731C15.5878 48.2015 17.0201 46.8097 19.1685 46.3458C21.3169 45.8819 23.346 46.6937 24.3009 48.3174C24.659 49.4772 24.5396 50.637 23.8235 51.5649ZM31.8204 60.2634C32.5366 59.3355 33.2527 58.4077 33.9689 57.3639C34.0882 57.1319 34.0882 56.784 34.0882 56.436C33.014 52.0288 32.6559 47.6216 32.8947 43.0983C33.014 40.3148 33.3721 37.4153 33.9689 34.6318C34.685 31.0364 36.2367 27.905 39.5787 25.8173C37.9077 25.1215 36.356 25.5854 34.9237 27.2091C33.3721 29.1808 32.5366 31.3844 32.1785 33.82C32.1785 34.0519 32.0592 34.1679 31.9398 34.6318C31.5817 33.2401 31.4624 32.1962 31.1043 31.1524C30.5075 29.2967 29.5526 27.557 28.001 26.2813C26.8074 25.2374 25.6138 25.1215 24.4202 25.7014C27.7623 28.4849 28.8365 29.9926 29.7914 34.0519C31.4624 41.3586 31.343 48.6654 29.7914 55.9721C29.672 56.436 29.7914 57.0159 30.0301 57.3639C30.5075 58.5237 31.2237 59.3355 31.8204 60.2634ZM21.5557 21.1781C21.4363 22.3379 21.3169 23.0338 21.1976 23.8457C21.0782 27.0931 22.3912 29.9926 23.8235 32.7761C24.1815 33.588 24.659 34.0519 25.6138 34.0519C27.5236 34.1679 28.7171 36.0236 28.001 37.6473C27.6429 36.7194 27.1655 36.0236 25.8525 36.1395C27.4042 38.8071 28.8365 41.4746 30.5075 44.2581C30.3881 42.7504 30.3881 41.3586 30.2688 40.0829C29.672 34.6318 28.9559 29.1808 23.4654 25.8173C23.9428 25.4694 24.5396 25.1215 24.8977 24.6575C26.4493 23.2658 27.7623 21.6421 27.7623 19.4384C27.7623 18.0467 27.0461 17.3508 25.6138 17.3508C23.9428 17.3508 22.5105 18.3946 22.0331 19.9024C22.8686 20.7142 23.8235 21.5261 24.659 22.3379C24.5396 22.4539 24.5396 22.4539 24.4202 22.5699C23.5847 22.3379 22.6299 21.874 21.5557 21.1781ZM42.0852 21.2941C41.011 21.874 40.1755 22.3379 39.2206 22.8019C39.1013 22.6859 39.1013 22.5699 38.9819 22.5699C39.8174 21.758 40.7723 20.9462 41.6078 20.1343C41.011 18.8585 40.0561 17.9307 38.5045 17.6987C36.5948 17.3508 35.5205 18.3946 35.7593 20.2503C35.998 21.99 36.9528 23.3818 38.1464 24.5416C38.7432 25.1215 39.4594 25.5854 39.9368 25.9333C38.7432 27.0931 37.3109 28.1369 36.4754 29.4127C33.4914 33.9359 33.3721 39.155 33.014 44.4901C34.5657 41.7066 36.1173 39.039 37.5496 36.3715C36.2367 36.0236 35.998 37.1834 35.2818 37.7633C34.685 35.9076 35.998 34.2839 38.1464 34.0519C38.5045 34.0519 39.1013 33.82 39.2206 33.588C40.1755 31.3844 41.2497 29.1808 41.9659 26.9771C42.8014 25.1215 42.682 23.2658 42.0852 21.2941ZM22.6299 21.1781C20.004 19.3225 17.0201 18.7426 13.7974 19.0905C7.47142 19.6704 3.89068 23.6137 4.60683 29.4127C4.72619 30.3406 4.48747 30.6885 3.65197 31.0364C2.33903 31.3844 1.26481 32.1962 0.54866 33.704C3.53261 32.5442 6.27784 32.4282 9.14243 33.704C8.90372 33.2401 8.78436 32.8921 8.665 32.6602C6.87463 28.6009 8.06821 24.7735 11.8877 22.4539C15.2297 20.2503 18.9298 19.9024 22.6299 21.1781ZM41.6078 20.9462C44.353 20.1343 47.0983 20.2503 49.7241 21.1781C53.1855 22.4539 55.8114 24.6575 55.9307 28.6009C56.0501 30.2246 55.334 31.8483 55.0952 33.472C57.6018 32.1962 60.347 32.5442 63.2116 33.588C62.3761 31.7323 60.7051 31.1524 59.1534 30.5725C59.1534 30.4565 59.0341 30.3406 59.0341 30.3406C59.0341 29.9926 59.1534 29.6447 59.1534 29.2967C59.5115 25.9333 58.5566 22.9178 55.5727 20.9462C52.8274 19.0905 49.7241 18.7426 46.5015 19.0905C44.7111 19.3225 43.0401 19.9024 41.6078 20.9462ZM44.8305 18.9745C43.8756 15.959 42.2046 13.6394 38.9819 12.7116C34.8044 11.5518 31.4624 14.4513 32.2979 18.2786C32.8947 21.0622 34.8044 23.1498 36.9528 25.0055C37.1915 25.2374 37.7883 25.1215 38.5045 25.1215C38.0271 24.5416 37.7883 24.3096 37.5496 24.0776C36.356 22.8019 35.5205 21.4101 35.5205 19.6704C35.5205 17.9307 36.5948 16.8869 38.3851 17.1188C39.6981 17.2348 40.7723 17.9307 41.6078 18.9745C41.8465 19.3225 41.9659 19.5544 42.2046 19.9024C43.1594 19.6704 43.995 19.3225 44.8305 18.9745ZM25.6138 25.1215C25.8525 25.1215 26.4493 25.2374 26.8074 25.0055C28.8365 23.1498 30.7462 21.0622 31.343 18.2786C32.0592 15.2632 30.1494 12.8276 27.0461 12.5956C23.2267 12.2477 19.5266 15.1472 18.9298 19.0905C19.7653 19.4384 20.7202 19.6704 21.1976 19.9024C22.1524 18.9745 22.988 18.1627 23.8235 17.5828C24.8977 16.8869 26.33 16.8869 27.4042 17.6987C28.4784 18.5106 28.3591 19.7864 28.001 20.7142C27.4042 22.222 26.5687 23.6137 25.6138 25.1215ZM31.8204 69.4258C33.2527 67.5701 34.9237 65.3665 36.5948 63.2788C35.998 62.0031 35.2818 60.3793 34.4463 58.5237C33.4915 59.4515 32.5366 60.3793 31.8204 61.0752C30.9849 60.2634 30.0301 59.4515 29.0752 58.5237C28.2397 60.3793 27.5236 61.8871 27.0461 63.2788C28.8365 65.3665 30.3881 67.4541 31.8204 69.4258ZM33.1334 59.2196C35.2818 57.3639 37.7883 56.668 40.4142 56.2041C41.4884 55.9721 42.5627 55.8561 43.6369 55.6242C45.3079 55.1603 46.6208 54.2324 47.4563 52.7247C48.4112 50.985 48.1725 49.0133 46.9789 47.8535C45.666 46.5777 42.9207 46.2298 41.3691 47.1576C39.9368 47.9695 39.34 49.3613 39.8174 50.637C40.0561 50.4051 40.1755 50.1731 40.4142 49.9412C41.2497 48.8973 42.4433 48.7814 43.3982 49.4772C44.2337 50.0571 44.5917 51.2169 43.7562 52.1448C43.0401 52.9566 42.2046 53.5365 41.2497 54.0005C39.9368 54.6963 38.5045 55.0443 37.1915 55.6242C35.5205 56.436 34.0882 57.4799 33.1334 59.2196ZM23.9428 50.4051C24.3009 49.3613 23.9428 48.5494 23.2267 47.7375C21.9137 46.2298 19.5266 46.1138 17.4975 47.1576C15.9458 48.0855 15.2297 49.8252 15.8265 51.6809C16.662 54.2324 18.5717 55.2762 21.1976 55.7402C24.5396 56.3201 27.8816 56.784 30.5075 58.9876C29.5526 57.3639 28.2397 56.3201 26.5687 55.5082C25.2558 54.9283 23.7041 54.4644 22.3912 53.8845C21.1976 53.4206 20.004 52.7247 19.6459 51.4489C19.5266 50.869 19.6459 49.9412 20.004 49.5932C20.4814 49.1293 21.4363 48.8973 22.1524 49.0133C22.7492 49.2453 23.346 49.9412 23.9428 50.4051ZM14.0361 49.7092C15.5878 46.1138 17.6168 44.6061 20.8395 44.838C22.8686 44.954 24.659 45.6499 26.0913 47.0417C27.5236 48.4334 28.2397 50.2891 28.4784 52.3767C28.5978 52.1448 28.7171 52.0288 28.7171 51.9128C29.7914 46.5777 26.33 40.7787 19.1685 41.5906C14.991 42.1705 12.7232 45.7659 14.0361 49.7092ZM27.0461 25.3534C29.9107 26.9771 30.9849 29.6447 31.8204 32.7761C32.7753 29.6447 33.8495 26.8612 36.7141 25.2374C34.5657 23.2658 32.7753 21.0622 31.8204 18.0467C30.9849 21.2941 29.0752 23.3818 27.0461 25.3534ZM49.7241 49.5932C50.7984 46.6937 49.7241 44.0262 47.0983 42.5184C41.8465 39.6189 35.1625 43.2143 34.8044 49.1293C34.8044 50.0571 34.8044 50.985 34.9237 51.9128C36.2367 47.3896 38.7432 45.186 42.8014 44.838C45.9047 44.6061 48.0531 45.9978 49.7241 49.5932ZM50.2016 33.0081C47.9338 37.4153 51.1564 42.4025 56.2888 42.5184C58.9147 42.6344 60.7051 41.0107 60.9438 38.5751C61.1825 37.0674 60.4664 35.7916 58.9147 35.2117C57.2437 34.5158 55.4533 34.8638 54.4985 36.0236C54.6178 36.0236 54.8565 36.1395 54.9759 36.1395C56.4082 36.4875 57.005 37.1834 56.7663 38.4591C56.5275 39.6189 55.334 40.1988 53.9017 39.7349C52.35 39.271 51.2758 38.1112 50.7984 36.6035C50.4403 35.3277 50.4403 34.0519 50.2016 33.0081ZM9.02307 35.6756C9.02307 35.6756 8.90372 35.5597 8.78436 35.4437C6.75527 34.1679 4.1294 34.7478 3.05518 36.4875C1.98096 38.3432 3.17453 41.1267 5.20362 42.0545C7.47142 42.9824 10.5747 42.1705 12.3651 40.1988C14.1555 38.2272 14.5135 34.9798 13.2006 32.7761C13.2006 33.356 13.2006 33.82 13.2006 34.1679C13.0812 36.9514 11.4102 39.271 9.26179 39.6189C8.665 39.7349 7.71014 39.387 7.23271 39.039C6.87463 38.6911 6.63592 37.6473 6.87463 37.2993C7.47142 36.6035 8.30693 36.2555 9.02307 35.6756ZM14.7523 36.0236C16.9007 36.3715 19.2879 35.3277 20.2427 33.588C20.6008 33.0081 20.8395 32.1962 20.7202 31.7323C20.1234 30.1086 19.5266 28.4849 18.6911 27.0931C17.4975 25.2374 16.1845 23.4977 15.9458 21.1781C15.4684 21.2941 15.1103 21.4101 14.7523 21.5261C14.7523 21.758 14.8716 21.99 14.8716 22.106C15.5878 24.6575 16.9007 26.7452 18.6911 28.7168C19.8846 29.9926 19.8846 31.5004 18.9298 32.5442C17.9749 33.704 16.4233 33.82 14.8716 33.0081C14.6329 32.8921 14.3942 32.7761 14.1555 32.6602C14.2748 33.82 14.5135 34.8638 14.7523 36.0236ZM49.6048 32.6602C49.008 32.8921 48.5306 33.2401 48.0531 33.356C46.8595 33.704 45.5466 33.356 44.8305 32.4282C44.1143 31.5004 43.995 30.1086 44.8305 29.0648C45.0692 28.7168 45.4272 28.3689 45.666 28.021C47.337 26.0493 48.5306 23.9617 49.1273 21.4101C48.6499 21.2941 48.2918 21.1781 48.0531 21.1781C47.4563 22.4539 47.2176 23.8457 46.3821 24.8895C44.9498 26.8612 44.1143 29.0648 43.1594 31.1524C42.9207 31.6163 42.9207 32.1962 43.0401 32.6602C43.6369 34.8638 46.7402 36.4875 49.008 35.9076C49.2467 34.8638 49.4854 33.82 49.6048 32.6602ZM42.5627 21.1781C43.0401 23.4977 43.1594 25.8173 42.3239 27.905C41.6078 29.9926 40.6529 32.0803 39.6981 34.1679C39.9368 34.2839 40.2949 34.5158 40.8916 34.7478C42.0852 32.4282 43.1594 30.1086 44.2337 27.789C45.0692 25.8173 45.4272 23.7297 45.3079 21.6421C45.3079 20.9462 44.9498 20.7142 44.2337 20.8302C43.7562 21.0622 43.2788 21.0622 42.5627 21.1781ZM18.5717 20.8302C17.9749 26.1653 20.4814 30.4565 22.988 34.7478C23.4654 34.5158 23.8235 34.2839 24.1815 34.0519C21.9137 29.9926 20.004 25.9333 21.1976 21.0622C20.2427 21.0622 19.4072 20.9462 18.5717 20.8302ZM31.8204 9.46417C32.6559 8.30437 33.6108 7.26055 34.327 6.10075C34.4463 5.86879 34.5657 5.28889 34.4463 5.17291C33.6108 4.01311 32.6559 2.9693 31.8204 1.92548C31.1043 2.85332 30.2688 3.89714 29.4333 4.82497C29.0752 5.28889 28.9558 5.63683 29.3139 6.10075C30.1494 7.14457 30.9849 8.18839 31.8204 9.46417ZM25.9719 42.6344C25.3751 41.5906 24.7783 40.5468 24.1815 39.503C23.5847 38.2272 23.8235 37.1834 24.8977 36.3715C25.8525 35.5597 26.9268 35.6756 27.8816 36.4875C27.2848 34.6318 25.7332 33.9359 24.0622 34.6318C22.0331 35.5597 21.0782 37.6473 21.7944 39.7349C22.0331 40.3148 22.3912 41.0107 22.8686 41.3586C23.9428 41.9385 24.8977 42.2865 25.9719 42.6344ZM37.7883 42.7504C38.6238 42.2865 39.34 42.0545 40.0561 41.7066C40.4142 41.5906 41.011 41.4746 41.1304 41.2427C41.9659 39.9669 42.4433 38.5751 41.9659 37.0674C41.4884 35.6756 40.4142 34.7478 38.9819 34.5158C37.5496 34.1679 36.2367 35.2117 35.998 36.4875C37.3109 35.5596 38.2658 35.6756 39.2206 36.7194C40.0561 37.6473 40.0561 38.5751 39.5787 39.6189C38.9819 40.6628 38.3851 41.5906 37.7883 42.7504ZM42.5627 14.1034C43.0401 14.6833 43.5175 15.2632 43.8756 15.8431C44.2337 16.423 44.5917 16.8869 45.4272 16.8869C45.9047 16.8869 46.6208 17.3508 46.8595 17.8147C47.4563 18.8585 48.2918 18.7426 49.2467 18.6266C49.1273 14.4513 45.7853 12.2477 42.5627 14.1034ZM21.1976 14.1034C18.0943 12.2477 14.7523 14.4513 14.5135 18.8585C15.2297 18.6266 16.0652 18.6266 16.5426 18.1627C17.2588 17.4668 17.8556 16.7709 19.0491 16.7709C19.1685 16.7709 19.5266 16.6549 19.5266 16.5389C20.004 15.7271 20.6008 14.9152 21.1976 14.1034ZM15.1103 36.7194C16.3039 38.9231 20.004 41.3586 22.2718 41.1267C21.1976 39.155 20.1234 37.4153 19.1685 35.6756C17.6168 36.0236 16.4233 36.3715 15.1103 36.7194ZM44.8305 35.5596C43.3982 37.2993 42.0852 38.9231 41.8465 41.3586C44.8305 40.6628 46.9789 39.039 48.7693 36.6035C48.0531 36.4875 47.337 36.3715 46.7402 36.2555C46.1434 36.1396 45.5466 35.7916 44.8305 35.5596ZM39.2206 9.34819C38.0271 7.95643 35.7593 7.37653 34.0882 7.95643C33.1334 8.30437 32.2979 9.00025 32.1785 10.0441C32.0592 11.0879 32.8947 11.6678 33.6108 12.2477C34.4463 12.9436 35.1625 12.4796 35.8786 12.1317C35.5205 9.81211 36.5948 8.76829 39.2206 9.34819ZM27.7623 12.1317C29.3139 12.8276 30.1494 12.5956 31.1043 11.3198C31.7011 10.508 31.7011 9.58015 30.9849 8.76829C29.3139 7.02859 25.7332 7.37653 24.3009 9.46417C25.3751 8.88427 26.2106 8.76829 27.1655 9.46417C28.001 10.276 28.1203 11.0879 27.7623 12.1317ZM33.2527 46.5777C35.1625 43.6782 36.9528 40.7787 38.7432 37.9952C39.2206 37.2993 38.9819 36.9514 38.2658 36.4875C36.356 39.7349 33.9689 42.7504 33.2527 46.5777ZM24.5396 37.0674C26.5687 40.3148 28.4784 43.4463 30.5075 46.5777C29.7914 42.7504 27.4042 39.6189 25.3751 36.2555C25.017 36.7195 24.7783 36.9514 24.5396 37.0674ZM31.8204 11.2039C31.1043 11.7838 30.5075 12.4796 29.9107 12.9436C30.6269 13.8714 31.2237 14.6833 31.8204 15.4951C32.4172 14.6833 33.1334 13.7554 33.7302 12.9436C33.2527 12.3637 32.5366 11.7838 31.8204 11.2039ZM41.1304 34.8638C41.7272 35.7916 42.2046 36.7194 42.682 37.6473C43.2788 36.8354 43.8756 36.0236 44.353 35.3277C43.6369 34.2839 43.0401 33.472 42.4433 32.5442C42.0852 33.472 41.6078 34.2839 41.1304 34.8638ZM21.3169 32.6602C20.7202 33.588 20.1234 34.3999 19.4072 35.4437C19.8846 36.1396 20.4814 36.9514 21.1976 37.8792C21.4363 37.2993 21.4363 36.7194 21.7944 36.4875C23.2267 35.2117 22.2718 34.1679 21.5557 33.0081C21.4363 32.8921 21.3169 32.7761 21.3169 32.6602ZM16.3039 21.0622C16.4233 22.8019 17.1394 24.3096 18.2136 25.8173C18.0943 23.9617 17.9749 22.4539 17.9749 20.8302C17.3781 20.9462 16.9007 20.9462 16.3039 21.0622ZM45.5466 25.9333C46.6208 24.4256 47.4563 22.9178 47.4563 21.0622C46.8595 20.9462 46.2628 20.9462 45.9047 20.9462C45.7853 22.5699 45.666 24.1936 45.5466 25.9333ZM46.9789 18.5106C46.5015 17.5828 45.9047 17.1188 44.8305 17.2348C45.1885 19.0905 45.3079 19.0905 46.9789 18.5106ZM16.5426 18.5106C18.4524 19.2065 18.6911 19.0905 18.9298 16.8869C18.0943 17.4668 17.3781 17.9307 16.5426 18.5106Z" fill="#061F40"/>
<path d="M31.8205 60.2635C31.2237 59.3356 30.5075 58.5238 29.9107 57.5959C29.672 57.248 29.5527 56.6681 29.672 56.2042C31.2237 48.8974 31.343 41.5907 29.672 34.284C28.7171 30.3407 27.6429 28.8329 24.3009 25.9334C25.4945 25.2375 26.5687 25.4695 27.8816 26.5133C29.4333 27.7891 30.3882 29.5288 30.9849 31.3845C31.343 32.4283 31.5817 33.4721 31.8205 34.8639C31.9398 34.4 32.0592 34.284 32.0592 34.052C32.4172 31.6164 33.2528 29.4128 34.8044 27.4412C36.2367 25.8174 37.669 25.2375 39.4594 26.0494C36.1173 28.137 34.5657 31.2685 33.8495 34.8639C33.2528 37.6474 33.014 40.4309 32.7753 43.3304C32.5366 47.8536 32.8947 52.2609 33.9689 56.6681C34.0883 56.9001 33.9689 57.364 33.8495 57.5959C33.2528 58.2918 32.5366 59.3356 31.8205 60.2635Z" fill="#061F40"/>
<path d="M22.6299 21.1783C18.8104 19.9025 15.2297 20.2505 11.8877 22.3381C8.0682 24.6577 6.87462 28.4851 8.66499 32.5443C8.78435 32.8923 8.9037 33.1242 9.14242 33.5882C6.27783 32.3124 3.53259 32.4284 0.548645 33.5882C1.26479 32.0804 2.33902 31.3845 3.65195 30.9206C4.60682 30.6887 4.72617 30.2247 4.60682 29.2969C4.01003 23.4979 7.47141 19.5546 13.7974 18.9747C17.02 18.7427 20.004 19.3226 22.6299 21.1783Z" fill="#061F40"/>
<path d="M41.6078 20.9463C43.0401 19.7865 44.8304 19.3226 46.6208 19.0907C49.8435 18.7427 52.9468 19.0907 55.692 20.9463C58.676 22.918 59.6308 25.9335 59.2728 29.2969C59.2728 29.6448 59.1534 29.9928 59.1534 30.3407C59.1534 30.4567 59.1534 30.4567 59.2728 30.5727C60.8244 31.1526 62.4954 31.7325 63.3309 33.5881C60.4663 32.5443 57.7211 32.3124 55.2146 33.4722C55.5727 31.8484 56.1695 30.2247 56.0501 28.601C55.692 24.7737 53.0661 22.5701 49.6048 21.2943C46.9789 20.2505 44.353 20.2505 41.6078 20.9463Z" fill="#061F40"/>
<path d="M44.8305 18.9747C43.8756 19.3226 43.0401 19.6705 42.2046 19.9025C41.9659 19.5546 41.7272 19.3226 41.6078 18.9747C40.8916 17.8149 39.8174 17.235 38.3851 17.119C36.5948 16.887 35.4012 17.9308 35.5205 19.6705C35.5205 21.4102 36.4754 22.802 37.5496 24.0778C37.7883 24.3097 38.0271 24.6577 38.5045 25.1216C37.7883 25.0056 37.1915 25.2376 36.9528 25.0056C34.9237 23.1499 33.014 21.0623 32.2979 18.2788C31.343 14.3355 34.8044 11.552 38.9819 12.7118C42.2046 13.6396 43.8756 15.9592 44.8305 18.9747Z" fill="#061F40"/>
<path d="M25.6138 25.1216C26.4493 23.6138 27.4042 22.2221 28.001 20.7143C28.4784 19.6705 28.4784 18.5107 27.4042 17.6988C26.3299 16.887 25.017 16.887 23.8234 17.5829C22.8686 18.1628 22.1524 18.9746 21.1975 19.9025C20.6008 19.6705 19.7653 19.4385 18.9297 19.0906C19.5265 15.2633 23.2266 12.2478 27.0461 12.5957C30.2688 12.8277 32.0591 15.2633 31.343 18.2787C30.6268 21.0623 28.8365 23.1499 26.8074 25.0056C26.5687 25.2375 25.9719 25.1216 25.6138 25.1216Z" fill="#061F40"/>
<path d="M31.8205 69.4256C30.3882 67.5699 28.7172 65.3663 27.0461 63.2786C27.6429 62.0028 28.3591 60.3791 29.0752 58.5234C30.0301 59.4513 30.985 60.2631 31.8205 61.075C32.5366 60.3791 33.4915 59.4513 34.4463 58.5234C35.2818 60.3791 35.998 62.0028 36.5948 63.2786C34.9238 65.3663 33.3721 67.4539 31.8205 69.4256Z" fill="#061F40"/>
<path d="M33.1334 59.2194C33.9689 57.5957 35.4012 56.4359 37.0722 55.624C38.3852 55.0441 39.8175 54.6962 41.1304 54.0003C42.0853 53.5364 43.0401 52.8405 43.6369 52.1446C44.4724 51.2168 44.2337 50.057 43.2788 49.4771C42.2046 48.7812 41.1304 48.8972 40.2949 49.941C40.0562 50.173 39.9368 50.4049 39.6981 50.6369C39.2207 49.3611 39.8175 47.9694 41.2498 47.1575C42.9208 46.2297 45.5466 46.5776 46.8596 47.8534C48.0532 49.0132 48.2919 50.9848 47.337 52.7245C46.5015 54.2323 45.1886 55.1601 43.5176 55.624C42.4433 55.856 41.3691 56.088 40.2949 56.2039C37.7884 56.6679 35.2819 57.3637 33.1334 59.2194Z" fill="#061F40"/>
<path d="M23.9428 50.405C23.3461 49.9411 22.7493 49.2452 22.1525 49.1292C21.4363 49.0132 20.4815 49.2452 20.004 49.7091C19.646 50.057 19.5266 50.9849 19.646 51.5648C20.004 52.8406 21.0782 53.5364 22.3912 54.0004C23.8235 54.5803 25.2558 55.0442 26.5687 55.6241C28.2397 56.32 29.5527 57.4798 30.5075 59.1035C27.7623 56.8999 24.4203 56.4359 21.1976 55.856C18.6911 55.3921 16.662 54.3483 15.8265 51.7967C15.2297 49.9411 15.9459 48.2014 17.4975 47.2735C19.5266 46.1137 21.9138 46.3457 23.2267 47.8534C23.9428 48.5493 24.3009 49.4771 23.9428 50.405Z" fill="#061F40"/>
<path d="M14.0361 49.7093C12.7232 45.766 14.991 42.2866 19.2878 41.7067C26.33 40.7788 29.7913 46.6938 28.8365 52.0289C28.8365 52.1449 28.7171 52.2608 28.5978 52.4928C28.3591 50.4052 27.6429 48.6655 26.2106 47.1577C24.7783 45.766 22.9879 45.0701 20.9589 44.9541C17.6168 44.6062 15.5877 46.1139 14.0361 49.7093Z" fill="#061F40"/>
<path d="M49.7241 49.593C48.0531 45.9976 45.9047 44.4899 42.8014 44.8378C38.6238 45.1858 36.2367 47.5054 34.9237 51.9126C34.9237 50.9848 34.8044 50.0569 34.8044 49.1291C35.1625 43.2141 41.8465 39.6187 47.0983 42.5182C49.7241 44.026 50.7984 46.6935 49.7241 49.593Z" fill="#061F40"/>
<path d="M50.2016 33.0083C50.4403 34.0521 50.4403 35.3279 50.7984 36.4877C51.2758 37.9954 52.2307 39.1552 53.9017 39.6192C55.2146 40.0831 56.4082 39.5032 56.7663 38.3434C57.1243 37.1836 56.5275 36.3717 54.9759 36.0238C54.8565 36.0238 54.7372 35.9078 54.4985 35.9078C55.5727 34.748 57.2437 34.4001 58.9147 35.0959C60.347 35.6758 61.0631 36.9516 60.9438 38.4594C60.5857 41.0109 58.7953 42.5186 56.2888 42.4027C51.1564 42.2867 47.9338 37.2996 50.2016 33.0083Z" fill="#061F40"/>
<path d="M9.0231 35.6759C8.30695 36.2558 7.47145 36.6037 7.11337 37.2996C6.87466 37.7635 7.11337 38.6913 7.47145 39.0393C7.94888 39.5032 8.78438 39.7352 9.50053 39.6192C11.649 39.2712 13.32 36.9516 13.4393 34.1681C13.4393 33.7042 13.4393 33.3563 13.4393 32.7764C14.7523 34.98 14.3942 38.2274 12.6038 40.1991C10.6941 42.2867 7.71016 42.9826 5.44236 42.0548C3.29392 41.1269 2.2197 38.3434 3.29392 36.4877C4.24878 34.632 6.99402 34.1681 9.0231 35.4439C9.0231 35.5599 9.14246 35.6759 9.0231 35.6759Z" fill="#061F40"/>
<path d="M14.7522 36.0237C14.5135 34.8639 14.2748 33.82 14.1555 32.6602C14.3942 32.7762 14.6329 32.8922 14.8716 33.0082C16.4233 33.82 17.9749 33.7041 18.9298 32.5443C19.8846 31.5004 19.7653 29.9927 18.6911 28.7169C16.9007 26.7453 15.5878 24.6576 14.8716 22.1061C14.8716 21.9901 14.8716 21.8741 14.7522 21.5262C15.1103 21.4102 15.4684 21.2942 15.9458 21.1782C16.3039 23.4978 17.4975 25.2375 18.6911 27.0932C19.6459 28.485 20.2427 30.1087 20.7201 31.7324C20.8395 32.1963 20.6008 33.0082 20.2427 33.5881C19.2878 35.3278 16.7813 36.3716 14.7522 36.0237Z" fill="#061F40"/>
<path d="M49.6048 32.66C49.3661 33.8198 49.2467 34.8636 49.008 36.0234C46.7402 36.6033 43.6369 34.9796 43.0401 32.776C42.9207 32.312 43.0401 31.7321 43.1595 31.2682C44.1143 29.1806 44.9498 26.977 46.3821 25.0053C47.0983 23.9615 47.4563 22.5697 48.0531 21.2939C48.2919 21.4099 48.6499 21.4099 49.1274 21.5259C48.6499 24.0775 47.337 26.1651 45.666 28.1368C45.4273 28.4847 45.0692 28.8326 44.8305 29.1806C44.1143 30.2244 44.1143 31.5002 44.8305 32.544C45.5466 33.4718 46.7402 33.8198 48.0531 33.4718C48.6499 33.2399 49.1274 32.8919 49.6048 32.66Z" fill="#061F40"/>
<path d="M42.5627 21.1782C43.1594 21.0622 43.7562 20.9462 44.2337 20.8302C44.9498 20.7143 45.3079 20.9462 45.3079 21.6421C45.4272 23.7297 45.0692 25.8174 44.2337 27.789C43.1594 30.1086 42.0852 32.4282 40.8916 34.7478C40.2948 34.3999 39.9368 34.2839 39.6981 34.1679C40.6529 32.0803 41.4884 29.9927 42.3239 27.905C43.1594 25.8174 43.0401 23.4978 42.5627 21.1782Z" fill="#061F40"/>
<path d="M18.5717 20.8301C19.5266 20.9461 20.2427 21.062 21.1976 21.178C19.8846 26.0492 21.9137 30.1085 24.1815 34.1678C23.8234 34.3997 23.4654 34.6317 22.9879 34.8636C20.3621 30.4564 17.8555 26.1652 18.5717 20.8301Z" fill="#061F40"/>
<path d="M31.8204 9.46399C30.8656 8.30419 30.1494 7.14439 29.3139 6.10057C28.9558 5.63665 29.0752 5.28871 29.4333 4.82479C30.2688 3.89695 31.1043 2.85313 31.8204 1.92529C32.6559 2.85313 33.6108 3.89695 34.5657 5.05675C34.685 5.28871 34.5657 5.75263 34.4463 5.98459C33.6108 7.14439 32.7753 8.30419 31.8204 9.46399Z" fill="#061F40"/>
<path d="M25.9719 42.6345C24.8977 42.1706 23.9428 41.9386 23.1073 41.3587C22.6299 41.0108 22.2718 40.3149 22.0331 39.735C21.1976 37.6474 22.1525 35.4437 24.3009 34.6319C25.9719 33.936 27.5236 34.6319 28.1203 36.4876C27.1655 35.6757 26.0913 35.4437 25.1364 36.3716C24.0622 37.1834 23.8235 38.2273 24.4203 39.503C24.659 40.5469 25.3751 41.5907 25.9719 42.6345Z" fill="#061F40"/>
<path d="M37.7884 42.7503C38.5045 41.5905 39.1013 40.6627 39.5787 39.6189C40.0562 38.5751 40.0562 37.6472 39.2207 36.7194C38.2658 35.6756 37.3109 35.5596 35.998 36.4874C36.2367 35.0957 37.5496 34.1678 38.9819 34.5158C40.4142 34.8637 41.4885 35.7915 41.9659 37.0673C42.5627 38.5751 41.9659 39.9668 41.1304 41.2426C40.8917 41.4746 40.4142 41.5905 40.0562 41.7065C39.34 42.0545 38.6239 42.4024 37.7884 42.7503Z" fill="#061F40"/>
<path d="M42.5627 14.1036C45.7853 12.2479 49.2467 14.4515 49.2467 18.6268C48.2919 18.7428 47.4563 18.8588 46.8596 17.815C46.6208 17.351 45.9047 17.0031 45.4273 16.8871C44.5918 16.8871 44.2337 16.4232 43.8756 15.8433C43.5175 15.2634 42.9208 14.6835 42.5627 14.1036Z" fill="#061F40"/>
<path d="M21.1976 14.1034C20.6008 14.9152 20.004 15.7271 19.4072 16.5389C19.2878 16.6549 19.0491 16.8869 18.9298 16.7709C17.8555 16.7709 17.2588 17.4668 16.4232 18.1627C15.9458 18.6266 15.1103 18.6266 14.3942 18.8585C14.7522 14.4513 18.0943 12.1317 21.1976 14.1034Z" fill="#061F40"/>
<path d="M15.1104 36.7196C16.3039 36.3717 17.6169 36.0237 19.1685 35.6758C20.1234 37.4155 21.1976 39.1552 22.2718 41.1268C20.004 41.3588 16.3039 38.9232 15.1104 36.7196Z" fill="#061F40"/>
<path d="M44.8304 35.5596C45.5466 35.7915 46.1434 36.0235 46.7402 36.2555C47.337 36.3714 47.9338 36.4874 48.7693 36.6034C46.9789 39.039 44.8304 40.5467 41.8465 41.3586C42.0852 38.923 43.5175 37.2993 44.8304 35.5596Z" fill="#061F40"/>
<path d="M39.2206 9.348C36.5948 8.88408 35.5205 9.81192 35.8786 12.2475C35.1625 12.5954 34.4463 12.9434 33.6108 12.3635C32.8947 11.7836 32.0592 11.2037 32.1785 10.1599C32.2979 9.00006 33.1334 8.42016 34.0882 8.07222C35.7593 7.26036 38.0271 7.84026 39.2206 9.348Z" fill="#061F40"/>
<path d="M27.7623 12.1319C28.1204 11.088 28.001 10.2762 27.1655 9.58031C26.33 8.88443 25.3751 9.00041 24.3009 9.58031C25.6138 7.37669 29.3139 7.02875 30.9849 8.88443C31.7011 9.69629 31.7011 10.6241 31.1043 11.436C30.1494 12.5958 29.3139 12.8277 27.7623 12.1319Z" fill="#061F40"/>
<path d="M33.2527 46.5776C34.0883 42.7502 36.3561 39.7347 38.2658 36.4873C38.9819 36.8352 39.34 37.1832 38.7432 37.995C36.8335 40.7786 35.0431 43.5621 33.2527 46.5776Z" fill="#061F40"/>
<path d="M24.5396 37.0672C24.7783 36.8353 25.017 36.6033 25.3751 36.2554C27.4042 39.7348 29.672 42.7502 30.5075 46.5776C28.5978 43.4461 26.6881 40.4306 24.5396 37.0672Z" fill="#061F40"/>
</svg>
