<svg width="59" height="66" viewBox="0 0 59 66" fill="none" xmlns="http://www.w3.org/2000/svg">
<path d="M22.1534 47.6425C21.9343 47.1073 21.7153 46.572 21.2773 46.1437C20.7297 45.5014 19.8537 45.3943 19.0871 45.9296C18.3205 46.4649 18.3205 47.2143 18.7586 47.7496C19.4156 48.499 20.2917 49.1414 21.1678 49.5696C23.139 50.5331 25.1101 51.1755 27.0813 52.0319C27.9574 48.1778 29.162 44.1096 26.2052 40.2555C25.0006 38.5426 23.9055 36.8297 22.8104 35.0097C22.7009 35.0097 22.5914 35.1167 22.4819 35.1167C22.7009 35.7591 22.8104 36.5085 23.2485 37.0438C24.1246 38.6496 25.2197 40.1485 26.0957 41.7543C27.3003 43.7884 27.5194 45.9296 26.9718 48.1778C26.8623 48.7131 26.6433 49.1414 26.2052 49.6767C26.0957 48.9272 26.0957 48.2849 25.9862 47.5355C25.3292 43.5743 21.6058 40.8979 17.5539 41.7543C15.3637 42.1826 13.9401 43.7884 13.5021 45.9296C13.5021 46.1437 13.3926 46.4649 13.3926 46.7861C12.1879 45.9296 11.9689 42.7179 13.064 41.112C14.2686 39.1849 16.0208 38.3285 18.1015 38.0073C16.5683 36.8297 15.1447 35.545 13.6116 34.3673C13.6116 34.4744 13.5021 34.7955 13.3926 35.0097C12.407 38.1144 8.90264 40.1485 5.83635 39.5061C3.75566 38.9708 2.33202 37.1508 2.44153 35.0097C2.55104 33.5108 3.53664 32.3332 5.06978 31.905C6.82194 31.4767 8.68361 32.1191 9.45019 33.4038C9.01214 33.5108 8.5741 33.5108 8.13606 33.6179C7.36949 33.832 6.82194 34.2603 7.04096 35.1167C7.15047 35.9732 7.91704 36.4014 8.79313 36.1873C9.99774 35.9732 10.8738 35.2238 11.4214 34.1532C12.407 32.4403 12.2975 30.5132 11.9689 28.6932C11.9689 28.4791 11.8594 28.1579 11.9689 27.8368C12.1879 28.0509 12.2975 28.372 12.5165 28.5862C13.064 29.1215 13.6116 29.6567 14.3781 30.085C15.3637 30.6203 16.5683 30.4062 17.2254 29.5497C17.8825 28.6932 17.8825 27.6226 17.1159 26.6591C16.0208 25.1603 15.0352 23.6615 14.0496 22.1627C13.6116 21.5203 13.5021 20.6638 13.1735 19.9144C7.91704 21.4133 6.49341 26.0168 9.5597 31.905C6.60292 29.8709 3.53664 30.085 0.36084 31.4767C0.47035 29.8709 1.0179 29.3356 4.08419 27.8368C4.08419 26.6591 3.97468 25.5885 4.08419 24.5179C4.63174 20.5568 7.69802 17.8803 11.8594 17.345C12.7355 17.238 12.9545 16.9168 13.1735 16.1674C13.7211 13.4909 15.4732 11.8851 17.773 11.9921C17.8825 11.9921 18.1015 11.9921 18.211 11.9921C19.6346 12.8486 20.8392 12.2062 22.1534 11.5639C22.8104 11.2427 23.6865 11.1356 24.4531 11.1356C25.3292 11.1356 25.4387 10.7074 25.4387 10.0651C25.3292 8.99448 24.2341 8.35213 23.139 8.88742C22.5914 9.10154 22.1534 9.52977 21.7153 9.85095C21.4963 7.81684 24.3436 6.31802 27.3003 6.85331C27.3003 6.74626 27.3003 6.74626 27.3003 6.6392C26.2052 4.92626 26.3148 4.92626 27.5194 3.42745C27.8479 2.99921 28.2859 2.46392 28.505 2.03569C28.8335 1.5004 28.943 0.965104 29.2715 0.322754C29.6001 0.965104 29.7096 1.5004 30.0381 2.03569C30.4761 2.7851 31.0237 3.5345 31.5712 4.0698C32.5568 4.71215 32.6663 5.24744 32.1188 5.88979C31.8998 6.21096 31.6808 6.53214 31.4617 6.96037C33.3234 6.53214 34.8566 6.85331 36.1707 7.9239C36.7182 8.35213 37.0468 9.10154 37.4848 9.74389C37.3753 9.85095 37.2658 9.85095 37.1563 9.95801C36.7182 9.63683 36.3897 9.31566 35.9517 8.99448C35.0756 8.45919 34.09 8.78036 33.6519 9.52977C33.2139 10.3862 33.5424 11.0286 34.528 11.1356C35.8421 11.3498 37.0468 11.8851 38.2514 12.2062C38.5799 12.3133 39.0179 12.4203 39.237 12.3133C42.0842 11.2427 44.4934 12.0992 45.26 14.8827C45.6981 16.5956 46.5741 17.1309 48.2168 17.4521C52.9257 18.5227 55.335 22.1627 54.7874 26.8732C54.6779 27.6226 54.8969 27.8368 55.554 28.1579C56.9776 28.6932 58.1822 29.5497 58.6203 31.4767C55.335 30.085 52.2687 29.7638 49.3119 31.905C50.9546 29.2285 51.9401 26.5521 50.2975 23.5544C49.3119 21.7344 47.6692 20.6638 45.5886 19.8074C44.9315 22.5909 43.5079 24.8391 41.6462 26.8732C40.9891 27.6226 40.9891 28.8003 41.5367 29.5497C42.0842 30.2991 43.1793 30.7273 44.1649 30.2991C44.9315 29.9779 45.5886 29.3356 46.2456 28.8003C46.4646 28.5862 46.6837 28.265 47.0122 27.9438C46.9027 28.8003 46.6837 29.6567 46.6837 30.6203C46.5741 32.2261 46.9027 33.832 48.1073 35.0097C48.6548 35.545 49.4214 35.9732 50.0785 36.1873C50.9546 36.4014 51.6116 35.9732 51.8306 35.1167C52.0497 34.2603 51.5021 33.725 50.7355 33.6179C50.5165 33.6179 50.0785 33.6179 49.6404 33.5108C50.407 32.2261 52.0497 31.5838 53.8018 31.905C55.335 32.2261 56.4301 33.2967 56.6491 34.6885C56.9776 37.6861 54.5684 40.0414 51.5021 39.6132C48.5453 39.1849 46.5741 37.6861 45.6981 34.7955C45.6981 34.5814 45.5886 34.4744 45.5886 34.2603C45.5886 34.2603 45.5886 34.2603 45.6981 34.2603C44.1649 35.545 42.6318 36.7226 41.2081 38.0073C43.7269 38.5426 45.9171 39.6132 46.6837 42.3967C47.1217 44.0026 46.7932 45.5014 46.0266 46.8931C45.9171 46.7861 45.8076 46.679 45.8076 46.679C45.6981 42.5037 41.4272 40.8979 38.0323 42.0755C35.1851 43.039 33.3234 45.5014 33.2139 48.7131C33.2139 49.0343 33.2139 49.4625 32.9949 49.7837C32.2283 48.0708 31.7903 46.2508 32.3378 44.5379C32.8854 42.8249 33.7615 41.219 34.6375 39.6132C35.1851 38.6496 35.8421 37.6861 36.3897 36.7226C36.6087 36.1873 36.7182 35.652 36.9372 35.1167C36.7182 35.1167 36.6087 35.1167 36.6087 35.1167C35.0756 37.472 33.5424 39.9343 32.1188 42.2896C31.2427 43.7884 31.1332 45.5014 31.4617 47.1073C31.6808 48.8202 32.0093 50.5331 32.2283 52.0319C34.528 51.0684 36.7182 50.319 38.7989 49.3555C39.456 49.0343 40.0035 48.6061 40.4416 48.0708C41.0986 47.3214 40.9891 46.3578 40.3321 45.9296C39.456 45.3943 38.4704 45.5014 37.9228 46.4649C37.7038 46.7861 37.5943 47.2143 37.3753 47.6425C36.4992 46.7861 36.3897 45.5014 37.2658 44.3237C38.3609 42.7179 40.6606 42.1826 42.8508 43.1461C44.7125 43.8955 45.5886 45.6084 45.1505 47.5355C44.7125 49.5696 43.3983 50.9614 41.3177 51.4966C39.675 51.9249 38.0323 52.139 36.3897 52.5672C35.1851 52.8884 33.9805 53.3166 32.6663 53.8519C33.4329 55.5649 34.09 57.1707 34.747 58.6696C33.871 59.7401 32.7759 60.7037 31.8998 61.8813C31.1332 62.9519 30.4761 64.2366 29.8191 65.4142C29.162 64.3437 28.6145 63.059 27.7384 61.8813C26.9718 60.7037 25.8767 59.7401 24.8911 58.6696C25.5482 57.2778 26.2052 55.6719 26.9718 53.8519C25.6577 53.4237 24.4531 52.8884 23.2485 52.5672C21.8248 52.2461 20.2917 52.0319 18.8681 51.7108C16.1303 51.0684 14.3781 48.8202 14.4877 46.3578C14.5972 44.5379 15.9113 43.2532 17.8825 42.8249C19.8537 42.3967 21.7153 43.1461 22.5914 44.6449C22.9199 45.7155 22.8104 46.7861 22.1534 47.6425ZM29.4906 55.6719C30.1476 54.8155 30.8047 53.959 31.4617 52.9955C31.5712 52.7813 31.5712 52.4602 31.5712 52.139C30.5857 48.0708 30.2571 44.0026 30.4761 39.8273C30.5857 37.2579 30.9142 34.5814 31.4617 32.012C32.1188 28.6932 33.5424 25.8026 36.6087 23.8756C35.0756 23.2332 33.6519 23.6615 32.3378 25.1603C30.9142 26.9803 30.1476 29.0144 29.8191 31.2626C29.8191 31.4767 29.7096 31.5838 29.6001 32.012C29.2715 30.7273 29.162 29.7638 28.8335 28.8003C28.2859 27.0873 27.4099 25.4815 25.9862 24.3038C24.8911 23.3403 23.796 23.2332 22.7009 23.7685C25.7672 26.3379 26.7528 27.7297 27.6289 31.4767C29.162 38.2214 29.0525 44.9661 27.6289 51.7108C27.5194 52.139 27.6289 52.6743 27.8479 52.9955C28.2859 54.066 28.943 54.8155 29.4906 55.6719ZM20.0727 19.5933C19.9632 20.6638 19.8537 21.3062 19.7441 22.0556C19.6346 25.0532 20.8392 27.7297 22.1534 30.2991C22.4819 31.0485 22.9199 31.4767 23.796 31.4767C25.5482 31.5838 26.6433 33.2967 25.9862 34.7955C25.6577 33.9391 25.2197 33.2967 24.015 33.4038C25.4387 35.8661 26.7528 38.3285 28.2859 40.8979C28.1764 39.5061 28.1764 38.2214 28.0669 37.0438C27.5194 32.012 26.8623 26.9803 21.8248 23.8756C22.2629 23.5544 22.8104 23.2332 23.139 22.805C24.5626 21.5203 25.7672 20.0215 25.7672 17.9874C25.7672 16.7027 25.1101 16.0603 23.796 16.0603C22.2629 16.0603 20.9488 17.0239 20.5107 18.4156C21.2773 19.165 22.1534 19.9144 22.9199 20.6638C22.8104 20.7709 22.8104 20.7709 22.7009 20.878C21.9343 20.6638 21.0583 20.2356 20.0727 19.5933ZM38.9084 19.7003C37.9228 20.2356 37.1563 20.6638 36.2802 21.0921C36.1707 20.985 36.1707 20.878 36.0612 20.878C36.8277 20.1286 37.7038 19.3791 38.4704 18.6297C37.9228 17.4521 37.0468 16.5956 35.6231 16.3815C33.871 16.0603 32.8854 17.0239 33.1044 18.7368C33.3234 20.3427 34.1995 21.6274 35.2946 22.698C35.8421 23.2332 36.4992 23.6615 36.9372 23.9827C35.8421 25.0532 34.528 26.0168 33.7614 27.1944C31.0237 31.3697 30.9142 36.1873 30.5857 41.112C32.0093 38.5426 33.4329 36.0802 34.747 33.6179C33.5424 33.2967 33.3234 34.3673 32.6663 34.9026C32.1188 33.1897 33.3234 31.6909 35.2946 31.4767C35.6231 31.4767 36.1707 31.2626 36.2802 31.0485C37.1563 29.0144 38.1419 26.9803 38.7989 24.9462C39.5655 23.2332 39.456 21.5203 38.9084 19.7003ZM21.0583 19.5933C18.649 17.8803 15.9113 17.345 12.9545 17.6662C7.15047 18.2015 3.86517 21.8415 4.52223 27.1944C4.63174 28.0509 4.41272 28.372 3.64615 28.6932C2.44153 29.0144 1.45594 29.7638 0.798881 31.1556C3.53664 30.085 6.05537 29.9779 8.68361 31.1556C8.46459 30.7273 8.35508 30.4062 8.24557 30.192C6.60292 26.445 7.69802 22.9121 11.2023 20.7709C14.2686 18.7368 17.6635 18.4156 21.0583 19.5933ZM38.4704 19.3791C40.9891 18.6297 43.5079 18.7368 45.9171 19.5933C49.0929 20.7709 51.5021 22.805 51.6116 26.445C51.7211 27.9438 51.0641 29.4426 50.845 30.9414C53.1448 29.7638 55.6635 30.085 58.2917 31.0485C57.5252 29.3356 55.992 28.8003 54.5684 28.265C54.5684 28.1579 54.4589 28.0509 54.4589 28.0509C54.4589 27.7297 54.5684 27.4085 54.5684 27.0873C54.8969 23.9827 54.0208 21.1991 51.2831 19.3791C48.7643 17.6662 45.9171 17.345 42.9603 17.6662C41.3177 17.8803 39.7845 18.4156 38.4704 19.3791ZM41.4272 17.5591C40.5511 14.7756 39.0179 12.6345 36.0612 11.778C32.2283 10.7074 29.162 13.3839 29.9286 16.9168C30.4761 19.4862 32.2283 21.4133 34.1995 23.1262C34.4185 23.3403 34.9661 23.2332 35.6231 23.2332C35.1851 22.698 34.9661 22.4838 34.747 22.2697C33.6519 21.0921 32.8854 19.8074 32.8854 18.2015C32.8854 16.5956 33.871 15.6321 35.5136 15.8462C36.7182 15.9533 37.7038 16.5956 38.4704 17.5591C38.6894 17.8803 38.7989 18.0944 39.0179 18.4156C39.894 18.2015 40.6606 17.8803 41.4272 17.5591ZM23.796 23.2332C24.015 23.2332 24.5626 23.3403 24.8911 23.1262C26.7528 21.4133 28.505 19.4862 29.0525 16.9168C29.7096 14.1333 27.9574 11.8851 25.1101 11.6709C21.6058 11.3498 18.211 14.0262 17.6634 17.6662C18.43 17.9874 19.3061 18.2015 19.7441 18.4156C20.6202 17.5591 21.3868 16.8097 22.1534 16.2744C23.139 15.6321 24.4531 15.6321 25.4387 16.3815C26.4243 17.1309 26.3148 18.3086 25.9862 19.165C25.4387 20.5568 24.6721 21.8415 23.796 23.2332ZM29.4906 64.1295C30.8047 62.4166 32.3378 60.3825 33.871 58.4554C33.3234 57.2778 32.6663 55.779 31.8998 54.066C31.0237 54.9225 30.1476 55.779 29.4906 56.4213C28.724 55.6719 27.8479 54.9225 26.9718 54.066C26.2052 55.779 25.5482 57.1707 25.1101 58.4554C26.7528 60.3825 28.1764 62.3095 29.4906 64.1295ZM30.6952 54.7084C32.6663 52.9955 34.9661 52.3531 37.3753 51.9249C38.3609 51.7108 39.3465 51.6037 40.3321 51.3896C41.8652 50.9614 43.0698 50.1049 43.8364 48.7131C44.7125 47.1073 44.4935 45.2873 43.3983 44.2167C42.1937 43.039 39.675 42.7179 38.2514 43.5743C36.9372 44.3237 36.3897 45.6084 36.8277 46.7861C37.0468 46.572 37.1563 46.3578 37.3753 46.1437C38.1419 45.1802 39.237 45.0731 40.113 45.7155C40.8796 46.2508 41.2081 47.3214 40.4416 48.1778C39.7845 48.9272 39.0179 49.4625 38.1419 49.8908C36.9372 50.5331 35.6231 50.8543 34.4185 51.3896C32.8854 52.139 31.5712 53.1025 30.6952 54.7084ZM22.2629 46.572C22.5914 45.6084 22.2629 44.859 21.6058 44.1096C20.4012 42.7179 18.211 42.6108 16.3493 43.5743C14.9257 44.4308 14.2686 46.0367 14.8162 47.7496C15.5828 50.1049 17.3349 51.0684 19.7441 51.4966C22.8104 52.0319 25.8767 52.4602 28.2859 54.4943C27.4099 52.9955 26.2052 52.0319 24.6721 51.2825C23.4675 50.7472 22.0439 50.319 20.8392 49.7837C19.7441 49.3555 18.649 48.7131 18.3205 47.5355C18.211 47.0002 18.3205 46.1437 18.649 45.8226C19.0871 45.3943 19.9632 45.1802 20.6202 45.2873C21.1678 45.5014 21.7153 46.1437 22.2629 46.572ZM13.1735 45.9296C14.5972 42.6108 16.4588 41.219 19.4156 41.4332C21.2773 41.5402 22.9199 42.1826 24.2341 43.4673C25.5482 44.752 26.2052 46.4649 26.4243 48.392C26.5338 48.1778 26.6433 48.0708 26.6433 47.9637C27.6289 43.039 24.4531 37.6861 17.8825 38.4355C14.0496 38.9708 11.9689 42.2896 13.1735 45.9296ZM25.1101 23.4474C27.7384 24.9462 28.724 27.4085 29.4906 30.2991C30.3666 27.4085 31.3522 24.8391 33.9805 23.3403C32.0093 21.5203 30.3666 19.4862 29.4906 16.7027C28.724 19.7003 26.9718 21.6274 25.1101 23.4474ZM45.9171 45.8226C46.9027 43.1461 45.9171 40.6838 43.5079 39.292C38.6894 36.6155 32.5568 39.9343 32.2283 45.3943C32.2283 46.2508 32.2283 47.1073 32.3378 47.9637C33.5424 43.7884 35.8421 41.7543 39.5655 41.4332C42.4128 41.219 44.3839 42.5037 45.9171 45.8226ZM46.3551 30.5132C44.2744 34.5814 47.2312 39.1849 51.9401 39.292C54.3494 39.3991 55.992 37.9002 56.211 35.652C56.4301 34.2603 55.773 33.0826 54.3494 32.5473C52.8162 31.905 51.1736 32.2261 50.2975 33.2967C50.407 33.2967 50.626 33.4038 50.7355 33.4038C52.0497 33.725 52.5972 34.3673 52.3782 35.545C52.1592 36.6155 51.0641 37.1508 49.7499 36.7226C48.3263 36.2944 47.3407 35.2238 46.9027 33.832C46.5741 32.6544 46.5741 31.4767 46.3551 30.5132ZM8.57411 32.9756C8.57411 32.9756 8.46459 32.8685 8.35508 32.7614C6.49341 31.5838 4.08419 32.1191 3.0986 33.725C2.113 35.4379 3.2081 38.0073 5.06978 38.8638C7.15047 39.7202 9.99774 38.9708 11.6404 37.1508C13.283 35.3308 13.6116 32.3332 12.407 30.2991C12.407 30.8344 12.407 31.2626 12.407 31.5838C12.2975 34.1532 10.7643 36.2944 8.79313 36.6155C8.24557 36.7226 7.36949 36.4014 6.93145 36.0802C6.60292 35.7591 6.3839 34.7955 6.60292 34.4744C7.15047 33.832 7.91704 33.5108 8.57411 32.9756ZM13.8306 33.2967C15.8018 33.6179 17.992 32.6544 18.8681 31.0485C19.1966 30.5132 19.4156 29.7638 19.3061 29.3356C18.7586 27.8368 18.211 26.3379 17.4444 25.0532C16.3493 23.3403 15.1447 21.7344 14.9257 19.5933C14.4877 19.7003 14.1591 19.8074 13.8306 19.9144C13.8306 20.1286 13.9401 20.3427 13.9401 20.4497C14.5972 22.805 15.8018 24.7321 17.4444 26.5521C18.5395 27.7297 18.5395 29.1215 17.6634 30.085C16.7874 31.1556 15.3637 31.2626 13.9401 30.5132C13.7211 30.4062 13.5021 30.2991 13.283 30.192C13.3926 31.2626 13.6116 32.2261 13.8306 33.2967ZM45.8076 30.192C45.26 30.4062 44.822 30.7273 44.3839 30.8344C43.2888 31.1556 42.0842 30.8344 41.4272 29.9779C40.7701 29.1215 40.6606 27.8368 41.4272 26.8732C41.6462 26.5521 41.9747 26.2309 42.1937 25.9097C43.7269 24.0897 44.822 22.1627 45.3695 19.8074C44.9315 19.7003 44.603 19.5933 44.3839 19.5933C43.8364 20.7709 43.6174 22.0556 42.8508 23.0191C41.5367 24.8391 40.7701 26.8732 39.894 28.8003C39.675 29.2285 39.675 29.7638 39.7845 30.192C40.3321 32.2261 43.1793 33.725 45.26 33.1897C45.479 32.2261 45.6981 31.2626 45.8076 30.192ZM39.3465 19.5933C39.7845 21.7344 39.894 23.8756 39.1275 25.8026C38.4704 27.7297 37.5943 29.6567 36.7182 31.5838C36.9372 31.6909 37.2658 31.905 37.8133 32.1191C38.9084 29.9779 39.894 27.8368 40.8796 25.6956C41.6462 23.8756 41.9747 21.9485 41.8652 20.0215C41.8652 19.3791 41.5367 19.165 40.8796 19.2721C40.4416 19.4862 40.0035 19.4862 39.3465 19.5933ZM17.3349 19.2721C16.7874 24.1968 19.0871 28.1579 21.3868 32.1191C21.8248 31.905 22.1534 31.6909 22.4819 31.4767C20.4012 27.7297 18.649 23.9827 19.7441 19.4862C18.8681 19.4862 18.1015 19.3791 17.3349 19.2721ZM29.4906 8.78036C30.2571 7.70978 31.1332 6.74626 31.7903 5.67567C31.8998 5.46156 32.0093 4.92626 31.8998 4.8192C31.1332 3.74862 30.2571 2.7851 29.4906 1.82157C28.8335 2.67804 28.0669 3.64156 27.3003 4.49803C26.9718 4.92626 26.8623 5.24744 27.1908 5.67567C27.9574 6.6392 28.724 7.60272 29.4906 8.78036ZM24.1246 39.3991C23.577 38.4355 23.0294 37.472 22.4819 36.5085C21.9343 35.3308 22.1534 34.3673 23.139 33.6179C24.015 32.8685 25.0006 32.9756 25.8767 33.725C25.3292 32.012 23.9055 31.3697 22.3724 32.012C20.5107 32.8685 19.6346 34.7955 20.2917 36.7226C20.5107 37.2579 20.8392 37.9002 21.2773 38.2214C22.2629 38.7567 23.139 39.0779 24.1246 39.3991ZM34.9661 39.5061C35.7326 39.0779 36.3897 38.8638 37.0468 38.5426C37.3753 38.4355 37.9228 38.3285 38.0323 38.1144C38.7989 36.9367 39.237 35.652 38.7989 34.2603C38.3609 32.9756 37.3753 32.1191 36.0612 31.905C34.747 31.5838 33.5424 32.5473 33.3234 33.725C34.528 32.8685 35.4041 32.9756 36.2802 33.9391C37.0468 34.7955 37.0468 35.652 36.6087 36.6155C36.0612 37.5791 35.5136 38.4355 34.9661 39.5061ZM39.3465 13.0627C39.7845 13.598 40.2226 14.1333 40.5511 14.6686C40.8796 15.2039 41.2081 15.6321 41.9747 15.6321C42.4128 15.6321 43.0698 16.0603 43.2888 16.4886C43.8364 17.4521 44.603 17.345 45.479 17.238C45.3695 13.3839 42.3032 11.3498 39.3465 13.0627ZM19.7441 13.0627C16.8969 11.3498 13.8306 13.3839 13.6116 17.4521C14.2686 17.238 15.0352 17.238 15.4732 16.8097C16.1303 16.1674 16.6779 15.525 17.773 15.525C17.8825 15.525 18.211 15.418 18.211 15.3109C18.649 14.5615 19.1966 13.8121 19.7441 13.0627ZM14.1591 33.9391C15.2542 35.9732 18.649 38.2214 20.7297 38.0073C19.7441 36.1873 18.7586 34.5814 17.8825 32.9756C16.4588 33.2967 15.3637 33.6179 14.1591 33.9391ZM41.4272 32.8685C40.113 34.4744 38.9084 35.9732 38.6894 38.2214C41.4272 37.5791 43.3983 36.0802 45.041 33.832C44.3839 33.725 43.7269 33.6179 43.1793 33.5108C42.6318 33.4038 42.0842 33.0826 41.4272 32.8685ZM36.2802 8.67331C35.1851 7.38861 33.1044 6.85331 31.5712 7.38861C30.6952 7.70978 29.9286 8.35213 29.8191 9.31566C29.7096 10.2792 30.4761 10.8145 31.1332 11.3498C31.8998 11.9921 32.5568 11.5639 33.2139 11.2427C32.8854 9.10154 33.871 8.13801 36.2802 8.67331ZM25.7672 11.2427C27.1908 11.8851 27.9574 11.6709 28.8335 10.4933C29.381 9.74389 29.381 8.88742 28.724 8.13801C27.1908 6.53214 23.9055 6.85331 22.5914 8.78036C23.577 8.24507 24.3436 8.13801 25.2197 8.78036C25.9862 9.52977 26.0957 10.2792 25.7672 11.2427ZM30.8047 43.039C32.5568 40.3626 34.1995 37.6861 35.8421 35.1167C36.2802 34.4744 36.0612 34.1532 35.4041 33.725C33.6519 36.7226 31.4617 39.5061 30.8047 43.039ZM22.8104 34.2603C24.6721 37.2579 26.4243 40.1485 28.2859 43.039C27.6289 39.5061 25.4387 36.6155 23.577 33.5108C23.2485 33.9391 23.0295 34.1532 22.8104 34.2603ZM29.4906 10.3862C28.8335 10.9215 28.2859 11.5639 27.7384 11.9921C28.3954 12.8486 28.943 13.598 29.4906 14.3474C30.0381 13.598 30.6952 12.7415 31.2427 11.9921C30.8047 11.4568 30.1476 10.9215 29.4906 10.3862ZM38.0323 32.2261C38.5799 33.0826 39.0179 33.9391 39.456 34.7955C40.0035 34.0461 40.5511 33.2967 40.9891 32.6544C40.3321 31.6909 39.7845 30.9414 39.237 30.085C38.9084 30.9414 38.4704 31.6909 38.0323 32.2261ZM19.8537 30.192C19.3061 31.0485 18.7586 31.7979 18.1015 32.7614C18.5395 33.4038 19.0871 34.1532 19.7441 35.0097C19.9632 34.4744 19.9632 33.9391 20.2917 33.725C21.6058 32.5473 20.7297 31.5838 20.0727 30.5132C19.9632 30.4062 19.8537 30.2991 19.8537 30.192ZM15.2542 19.4862C15.3637 21.0921 16.0208 22.4838 17.0064 23.8756C16.8969 22.1627 16.7874 20.7709 16.7874 19.2721C16.2398 19.3791 15.8018 19.3791 15.2542 19.4862ZM42.0842 23.9827C43.0698 22.5909 43.8364 21.1991 43.8364 19.4862C43.2888 19.3791 42.7413 19.3791 42.4128 19.3791C42.3032 20.878 42.1937 22.3768 42.0842 23.9827ZM43.3983 17.1309C42.9603 16.2745 42.4128 15.8462 41.4272 15.9533C41.7557 17.6662 41.8652 17.6662 43.3983 17.1309ZM15.4732 17.1309C17.2254 17.7733 17.4444 17.6662 17.6634 15.6321C16.8969 16.1674 16.2398 16.5956 15.4732 17.1309Z" fill="black" fill-opacity="0.2"/>
<path d="M29.4906 55.6717C28.943 54.8152 28.286 54.0658 27.7384 53.2093C27.5194 52.8882 27.4099 52.3529 27.5194 51.9246C28.943 45.18 29.0525 38.4353 27.5194 31.6906C26.6433 28.0506 25.6577 26.6589 22.5914 23.9824C23.6865 23.3401 24.6721 23.5542 25.8767 24.5177C27.3004 25.6953 28.1764 27.3012 28.724 29.0142C29.0525 29.9777 29.2716 30.9412 29.4906 32.2259C29.6001 31.7977 29.7096 31.6906 29.7096 31.4765C30.0381 29.2283 30.8047 27.1942 32.2283 25.3742C33.5424 23.8754 34.8566 23.3401 36.4992 24.0895C33.4329 26.0165 32.0093 28.9071 31.3522 32.2259C30.8047 34.7953 30.5857 37.3647 30.3667 40.0412C30.1476 44.2164 30.4762 48.2847 31.4618 52.3529C31.5713 52.567 31.4618 52.9952 31.3522 53.2093C30.8047 53.8517 30.1476 54.8152 29.4906 55.6717Z" fill="black" fill-opacity="0.2"/>
<path d="M21.0586 19.5935C17.5543 18.4158 14.2689 18.737 11.2027 20.664C7.69834 22.8052 6.60324 26.3381 8.24589 30.0852C8.3554 30.4064 8.46491 30.6205 8.68393 31.0487C6.05568 29.8711 3.53695 29.9781 0.799194 31.0487C1.45626 29.6569 2.44185 29.0146 3.64646 28.5864C4.52254 28.3722 4.63205 27.944 4.52254 27.0875C3.97499 21.7346 7.15079 18.0946 12.9548 17.5594C15.9116 17.3452 18.6494 17.8805 21.0586 19.5935Z" fill="black" fill-opacity="0.2"/>
<path d="M38.4704 19.3793C39.7845 18.3087 41.4272 17.8805 43.0698 17.6664C46.0266 17.3452 48.8739 17.6664 51.3926 19.3793C54.1304 21.1993 55.0064 23.9828 54.6779 27.0875C54.6779 27.4087 54.5684 27.7299 54.5684 28.0511C54.5684 28.1581 54.5684 28.1581 54.6779 28.2652C56.1015 28.8005 57.6347 29.3358 58.4013 31.0487C55.773 30.0852 53.2543 29.871 50.9546 30.9416C51.2831 29.4428 51.8306 27.944 51.7211 26.4452C51.3926 22.9123 48.9834 20.8781 45.8076 19.7005C43.3984 18.737 40.9891 18.737 38.4704 19.3793Z" fill="black" fill-opacity="0.2"/>
<path d="M41.4272 17.5594C40.5511 17.8806 39.7845 18.2017 39.0179 18.4159C38.7989 18.0947 38.5799 17.8806 38.4704 17.5594C37.8133 16.4888 36.8277 15.9535 35.5136 15.8465C33.871 15.6323 32.7759 16.5959 32.8854 18.2017C32.8854 19.8076 33.7615 21.0923 34.747 22.27C34.9661 22.4841 35.1851 22.8053 35.6231 23.2335C34.9661 23.1264 34.4185 23.3405 34.1995 23.1264C32.3378 21.4135 30.5857 19.4864 29.9286 16.917C29.0525 13.2771 32.2283 10.7077 36.0612 11.7782C39.0179 12.6347 40.5511 14.7759 41.4272 17.5594Z" fill="black" fill-opacity="0.2"/>
<path d="M23.796 23.2331C24.5626 21.8413 25.4387 20.5566 25.9862 19.1649C26.4243 18.2013 26.4243 17.1307 25.4387 16.3813C24.4531 15.6319 23.2485 15.6319 22.1534 16.2743C21.2773 16.8096 20.6202 17.559 19.7441 18.4154C19.1966 18.2013 18.43 17.9872 17.6635 17.666C18.211 14.1331 21.6058 11.3496 25.1101 11.6708C28.0669 11.8849 29.7096 14.1331 29.0525 16.9166C28.3954 19.486 26.7528 21.4131 24.8911 23.126C24.6721 23.3401 24.1246 23.2331 23.796 23.2331Z" fill="black" fill-opacity="0.2"/>
<path d="M29.4906 64.1294C28.1765 62.4165 26.6433 60.3824 25.1102 58.4553C25.6577 57.2777 26.3148 55.7789 26.9718 54.0659C27.8479 54.9224 28.724 55.6718 29.4906 56.4212C30.1476 55.7789 31.0237 54.9224 31.8998 54.0659C32.6664 55.7789 33.3234 57.2777 33.871 58.4553C32.3378 60.3824 30.9142 62.3094 29.4906 64.1294Z" fill="black" fill-opacity="0.2"/>
<path d="M30.6952 54.7083C31.4618 53.2095 32.7759 52.1389 34.309 51.3895C35.5136 50.8542 36.8278 50.533 38.0324 49.8907C38.9085 49.4624 39.7845 48.8201 40.3321 48.1777C41.0987 47.3213 40.8796 46.2507 40.0036 45.7154C39.018 45.073 38.0324 45.1801 37.2658 46.1436C37.0468 46.3577 36.9373 46.5718 36.7183 46.786C36.2802 45.6083 36.8278 44.3236 38.1419 43.5742C39.675 42.7177 42.0843 43.0389 43.2889 44.2166C44.384 45.2872 44.603 47.1071 43.7269 48.713C42.9603 50.1048 41.7557 50.9612 40.2226 51.3895C39.237 51.6036 38.2514 51.8177 37.2658 51.9248C34.9661 52.353 32.6664 52.9954 30.6952 54.7083Z" fill="black" fill-opacity="0.2"/>
<path d="M22.2629 46.572C21.7153 46.1438 21.1678 45.5015 20.6202 45.3944C19.9632 45.2873 19.0871 45.5015 18.649 45.9297C18.3205 46.2509 18.211 47.1073 18.3205 47.6426C18.649 48.8203 19.6346 49.4626 20.8392 49.8908C22.1534 50.4261 23.4675 50.8544 24.6721 51.3897C26.2052 52.032 27.4099 53.1026 28.2859 54.6014C25.7672 52.5673 22.7009 52.1391 19.7441 51.6038C17.4444 51.1755 15.5827 50.212 14.8162 47.8567C14.2686 46.1438 14.9257 44.5379 16.3493 43.6815C18.211 42.6109 20.4012 42.825 21.6058 44.2168C22.2629 44.8591 22.5914 45.7156 22.2629 46.572Z" fill="black" fill-opacity="0.2"/>
<path d="M13.1736 45.9295C11.9689 42.2895 14.0496 39.0778 17.992 38.5425C24.4531 37.686 27.6289 43.146 26.7528 48.0707C26.7528 48.1777 26.6433 48.2848 26.5338 48.4989C26.3148 46.5719 25.6577 44.966 24.3436 43.5742C23.0295 42.2895 21.3868 41.6472 19.5251 41.5401C16.4589 41.219 14.5972 42.6107 13.1736 45.9295Z" fill="black" fill-opacity="0.2"/>
<path d="M45.917 45.8226C44.3839 42.5038 42.4127 41.1121 39.5655 41.4332C35.7326 41.7544 33.5424 43.8956 32.3378 47.9638C32.3378 47.1073 32.2283 46.2509 32.2283 45.3944C32.5568 39.9344 38.6894 36.6156 43.5078 39.2921C45.917 40.6838 46.9026 43.1462 45.917 45.8226Z" fill="black" fill-opacity="0.2"/>
<path d="M46.3551 30.5132C46.5741 31.4767 46.5741 32.6543 46.9027 33.7249C47.3407 35.1167 48.2168 36.1873 49.7499 36.6155C50.9545 37.0437 52.0496 36.5085 52.3782 35.4379C52.7067 34.3673 52.1591 33.6179 50.7355 33.2967C50.626 33.2967 50.5165 33.1896 50.2975 33.1896C51.2831 32.1191 52.8162 31.7979 54.3494 32.4402C55.6635 32.9755 56.3205 34.1532 56.211 35.5449C55.8825 37.9002 54.2398 39.292 51.9401 39.1849C47.2312 39.0779 44.2744 34.4743 46.3551 30.5132Z" fill="black" fill-opacity="0.2"/>
<path d="M8.57411 32.9758C7.91705 33.5111 7.15048 33.8322 6.82195 34.4746C6.60293 34.9028 6.82195 35.7593 7.15048 36.0805C7.58852 36.5087 8.35509 36.7228 9.01215 36.6158C10.9833 36.2946 12.5165 34.1534 12.626 31.584C12.626 31.1558 12.626 30.8346 12.626 30.2993C13.8306 32.3334 13.5021 35.3311 11.8594 37.151C10.1072 39.0781 7.3695 39.7205 5.2888 38.864C3.31762 38.0075 2.33203 35.4381 3.31762 33.7252C4.1937 32.0122 6.71244 31.584 8.57411 32.7617C8.57411 32.8687 8.68362 32.9758 8.57411 32.9758Z" fill="black" fill-opacity="0.2"/>
<path d="M13.8306 33.2967C13.6116 32.2262 13.3925 31.2626 13.283 30.192C13.502 30.2991 13.7211 30.4062 13.9401 30.5132C15.3637 31.2626 16.7873 31.1556 17.6634 30.085C18.5395 29.1215 18.43 27.7297 17.4444 26.5521C15.8018 24.7321 14.5971 22.805 13.9401 20.4497C13.9401 20.3427 13.9401 20.2356 13.8306 19.9144C14.1591 19.8074 14.4876 19.7003 14.9257 19.5933C15.2542 21.7344 16.3493 23.3403 17.4444 25.0532C18.3205 26.3379 18.868 27.8368 19.3061 29.3356C19.4156 29.7638 19.1966 30.5132 18.868 31.0485C17.992 32.6544 15.6922 33.6179 13.8306 33.2967Z" fill="black" fill-opacity="0.2"/>
<path d="M45.8076 30.1919C45.5885 31.2625 45.479 32.226 45.26 33.2966C43.1793 33.8319 40.332 32.3331 39.7845 30.299C39.675 29.8707 39.7845 29.3355 39.894 28.9072C40.7701 26.9802 41.5367 24.9461 42.8508 23.1261C43.5079 22.1625 43.8364 20.8778 44.3839 19.7002C44.603 19.8073 44.9315 19.8073 45.3695 19.9143C44.9315 22.2696 43.7269 24.1966 42.1937 26.0166C41.9747 26.3378 41.6462 26.659 41.4272 26.9802C40.7701 27.9437 40.7701 29.1213 41.4272 30.0849C42.0842 30.9413 43.1793 31.2625 44.3839 30.9413C44.9315 30.7272 45.3695 30.406 45.8076 30.1919Z" fill="black" fill-opacity="0.2"/>
<path d="M39.3464 19.5931C39.894 19.486 40.4415 19.379 40.8796 19.2719C41.5366 19.1648 41.8652 19.379 41.8652 20.0213C41.9747 21.9484 41.6461 23.8754 40.8796 25.6954C39.894 27.8366 38.9084 29.9777 37.8133 32.1189C37.2658 31.7977 36.9372 31.6907 36.7182 31.5836C37.5943 29.6566 38.3609 27.7295 39.1274 25.8025C39.894 23.8754 39.7845 21.7342 39.3464 19.5931Z" fill="black" fill-opacity="0.2"/>
<path d="M17.3349 19.272C18.211 19.379 18.868 19.4861 19.7441 19.5931C18.5395 24.0896 20.4012 27.8366 22.4819 31.5837C22.1533 31.7978 21.8248 32.0119 21.3868 32.226C18.9775 28.1578 16.6778 24.1967 17.3349 19.272Z" fill="black" fill-opacity="0.2"/>
<path d="M29.4906 8.78008C28.6145 7.7095 27.9574 6.63892 27.1909 5.67539C26.8623 5.24716 26.9718 4.92598 27.3004 4.49775C28.0669 3.64128 28.8335 2.67776 29.4906 1.82129C30.2571 2.67776 31.1332 3.64128 32.0093 4.71187C32.1188 4.92598 32.0093 5.35422 31.8998 5.56833C31.1332 6.63892 30.3667 7.7095 29.4906 8.78008Z" fill="black" fill-opacity="0.2"/>
<path d="M24.1245 39.3989C23.1389 38.9707 22.2628 38.7566 21.4963 38.2213C21.0582 37.9001 20.7297 37.2578 20.5107 36.7225C19.7441 34.7954 20.6202 32.7613 22.5914 32.0119C24.1245 31.3696 25.5482 32.0119 26.0957 33.7248C25.2196 32.9754 24.234 32.7613 23.3579 33.6178C22.3724 34.3672 22.1533 35.3307 22.7009 36.5084C22.9199 37.4719 23.577 38.4354 24.1245 39.3989Z" fill="black" fill-opacity="0.2"/>
<path d="M34.9661 39.5063C35.6231 38.4357 36.1707 37.5792 36.6087 36.6157C37.0468 35.6522 37.0468 34.7957 36.2802 33.9392C35.4041 32.9757 34.528 32.8687 33.3234 33.7251C33.5424 32.4404 34.7471 31.584 36.0612 31.9051C37.3753 32.2263 38.3609 33.0828 38.7989 34.2604C39.3465 35.6522 38.7989 36.9369 38.0324 38.1145C37.8133 38.3286 37.3753 38.4357 37.0468 38.5428C36.3897 38.8639 35.7326 39.1851 34.9661 39.5063Z" fill="black" fill-opacity="0.2"/>
<path d="M39.3465 13.0628C42.3033 11.3499 45.4791 13.384 45.4791 17.2381C44.603 17.3451 43.8364 17.4522 43.2889 16.4887C43.0698 16.0604 42.4128 15.7393 41.9747 15.6322C41.2082 15.6322 40.8796 15.204 40.5511 14.6687C40.2226 14.1334 39.675 13.5981 39.3465 13.0628Z" fill="black" fill-opacity="0.2"/>
<path d="M19.7441 13.063C19.1966 13.8124 18.649 14.5618 18.1015 15.3112C17.992 15.4183 17.773 15.6324 17.6635 15.5253C16.6779 15.5253 16.1303 16.1677 15.3637 16.81C14.9257 17.2383 14.1591 17.2383 13.5021 17.4524C13.8306 13.3842 16.8969 11.243 19.7441 13.063Z" fill="black" fill-opacity="0.2"/>
<path d="M14.1591 33.9391C15.2542 33.6179 16.4588 33.2968 17.8825 32.9756C18.7585 34.5815 19.7441 36.1873 20.7297 38.0073C18.649 38.2214 15.2542 35.9732 14.1591 33.9391Z" fill="black" fill-opacity="0.2"/>
<path d="M41.4271 32.8687C42.0842 33.0828 42.6318 33.2969 43.1793 33.511C43.7269 33.6181 44.2744 33.7251 45.041 33.8322C43.3983 36.0804 41.4271 37.4722 38.6894 38.2216C38.9084 35.9733 40.2225 34.4745 41.4271 32.8687Z" fill="black" fill-opacity="0.2"/>
<path d="M36.2802 8.67324C33.871 8.24501 32.8854 9.10148 33.2139 11.3497C32.5569 11.6709 31.8998 11.9921 31.1332 11.4568C30.4762 10.9215 29.7096 10.3862 29.8191 9.42265C29.9286 8.35207 30.6952 7.81678 31.5713 7.4956C33.1044 6.74619 35.1851 7.28148 36.2802 8.67324Z" fill="black" fill-opacity="0.2"/>
<path d="M25.7672 11.2429C26.0958 10.2794 25.9862 9.52999 25.2197 8.88764C24.4531 8.24529 23.577 8.35235 22.5914 8.88764C23.796 6.85353 27.1909 6.53236 28.724 8.24529C29.3811 8.9947 29.3811 9.85117 28.8335 10.6006C27.9574 11.6712 27.1909 11.8853 25.7672 11.2429Z" fill="black" fill-opacity="0.2"/>
<path d="M30.8047 43.0392C31.5713 39.5063 33.652 36.7227 35.4041 33.7251C36.0612 34.0463 36.3897 34.3675 35.8422 35.1169C34.09 37.6863 32.4473 40.2557 30.8047 43.0392Z" fill="black" fill-opacity="0.2"/>
<path d="M22.8104 34.2601C23.0294 34.046 23.2485 33.8319 23.577 33.5107C25.4387 36.7225 27.5194 39.506 28.2859 43.0389C26.5338 40.1484 24.7816 37.3648 22.8104 34.2601Z" fill="black" fill-opacity="0.2"/>
</svg>
