<?xml version="1.0" encoding="utf-8"?>
<!-- Generator: Adobe Illustrator 23.0.1, SVG Export Plug-In . SVG Version: 6.00 Build 0)  -->
<svg version="1.1" id="Layer_1" xmlns="http://www.w3.org/2000/svg" xmlns:xlink="http://www.w3.org/1999/xlink" x="0px" y="0px"
	 viewBox="0 0 1600 112.2" style="enable-background:new 0 0 1600 112.2;" xml:space="preserve">
<style type="text/css">
	.st0{fill:#FFFFFF;}
	.st1{fill-opacity:5.000000e-02;}
	.st2{fill:#061F40;fill-opacity:0.1;}
</style>
<g>
	<path class="st0" d="M27.3,35.6C13.8,38.5-0.1,42-0.1,42L0,112.2h1600c0,0,0-42.9,0-69.8C1116.8,138.6,520.2-66.5,27.3,35.6z"/>
	<path class="st1" d="M-0.1,40L-0.1,40"/>
</g>
<g>
	<path class="st2" d="M-0.1,41.6c0,0.1,0,0.3,0,0.4C197,105.1,443.8,25.8,743.6,29.6C487,5.3,231.3-12.3-0.1,41.6z"/>
	<path class="st2" d="M-0.1,41.6"/>
</g>
<g>
	<path class="st1" d="M-0.1,40L-0.1,40"/>
	<path class="st1" d="M27.3,35.6C674.5-54.3,1194,224,1600,42.4C1116.8,138.6,520.2-66.5,27.3,35.6z"/>
</g>
</svg>
