<?xml version="1.0" encoding="utf-8"?>
<!-- Generator: Adobe Illustrator 23.0.1, SVG Export Plug-In . SVG Version: 6.00 Build 0)  -->
<svg version="1.1" id="Layer_1" xmlns="http://www.w3.org/2000/svg" xmlns:xlink="http://www.w3.org/1999/xlink" x="0px" y="0px"
	 viewBox="0 0 12 12" style="enable-background:new 0 0 12 12;" xml:space="preserve">
<style type="text/css">
	.st0{fill-rule:evenodd;clip-rule:evenodd;fill:#1EB7E3;}
</style>
<path class="st0" d="M10.5,0h-9C0.7,0,0,0.7,0,1.5v9C0,11.3,0.7,12,1.5,12h9c0.8,0,1.5-0.7,1.5-1.5v-9C12,0.7,11.3,0,10.5,0z
	 M0.8,2.9c0-0.4,0.3-0.6,0.8-0.6h9c0.4,0,0.8,0.3,0.8,0.6v7.7c0,0.4-0.3,0.6-0.8,0.6h-9c-0.4,0-0.8-0.3-0.8-0.6V2.9z"/>
<path class="st0" d="M4.9,5.2c0.4,0,0.8-0.3,0.8-0.8c0-0.4-0.3-0.7-0.8-0.7S4.1,4.1,4.1,4.5C4.1,4.9,4.5,5.2,4.9,5.2z M7.1,5.2
	c0.4,0,0.8-0.3,0.8-0.8c0-0.4-0.3-0.7-0.8-0.7S6.4,4.1,6.4,4.5C6.4,4.9,6.7,5.2,7.1,5.2z M9.4,5.2c0.4,0,0.8-0.3,0.8-0.8
	c0-0.4-0.3-0.7-0.8-0.7S8.6,4.1,8.6,4.5C8.6,4.9,9,5.2,9.4,5.2z M2.6,7.5c0.4,0,0.8-0.3,0.8-0.8C3.4,6.3,3,6,2.6,6S1.9,6.3,1.9,6.7
	C1.9,7.2,2.2,7.5,2.6,7.5z M4.9,7.5c0.4,0,0.8-0.3,0.8-0.8C5.6,6.3,5.3,6,4.9,6S4.1,6.3,4.1,6.7C4.1,7.2,4.5,7.5,4.9,7.5z M7.1,7.5
	c0.4,0,0.8-0.3,0.8-0.8C7.9,6.3,7.5,6,7.1,6S6.4,6.3,6.4,6.7C6.4,7.2,6.7,7.5,7.1,7.5z M9.4,7.5c0.4,0,0.8-0.3,0.8-0.8
	C10.1,6.3,9.8,6,9.4,6S8.6,6.3,8.6,6.7C8.6,7.2,9,7.5,9.4,7.5z M2.6,9.7C3,9.7,3.4,9.4,3.4,9c0-0.4-0.3-0.8-0.8-0.8S1.9,8.6,1.9,9
	C1.9,9.4,2.2,9.7,2.6,9.7z M4.9,9.7c0.4,0,0.8-0.3,0.8-0.8c0-0.4-0.3-0.8-0.8-0.8S4.1,8.6,4.1,9C4.1,9.4,4.5,9.7,4.9,9.7z M7.1,9.7
	c0.4,0,0.8-0.3,0.8-0.8c0-0.4-0.3-0.8-0.8-0.8S6.4,8.6,6.4,9C6.4,9.4,6.7,9.7,7.1,9.7z"/> 
</svg>
