<svg width="10" height="14" viewBox="0 0 10 14" fill="none" xmlns="http://www.w3.org/2000/svg">
<path d="M4.58361 12.9413C1.17819 7.65252 0.546082 7.10973 0.546082 5.16601C0.546082 2.50355 2.56079 0.345215 5.04608 0.345215C7.53137 0.345215 9.54608 2.50355 9.54608 5.16601C9.54608 7.10973 8.91397 7.65252 5.50855 12.9413C5.28507 13.2872 4.80707 13.2871 4.58361 12.9413ZM5.04608 7.17468C6.08162 7.17468 6.92108 6.27538 6.92108 5.16601C6.92108 4.05665 6.08162 3.15735 5.04608 3.15735C4.01054 3.15735 3.17108 4.05665 3.17108 5.16601C3.17108 6.27538 4.01054 7.17468 5.04608 7.17468Z" fill="#FFDC91"/>
</svg>
