<svg width="11" height="12" viewBox="0 0 11 12" fill="none" xmlns="http://www.w3.org/2000/svg">
<path d="M0.418506 1.08941L2.50054 0.574766C2.72704 0.51877 2.95857 0.644509 3.05019 0.873533L4.01113 3.27545C4.05218 3.37805 4.06098 3.49217 4.0362 3.6006C4.01142 3.70902 3.95441 3.80588 3.87376 3.87657L2.66023 4.94021C3.3804 6.58461 4.64093 7.95358 6.20868 8.74152L7.20157 7.44153C7.26755 7.35514 7.35797 7.29406 7.45918 7.26752C7.56039 7.24097 7.66692 7.2504 7.7627 7.29437L10.0048 8.32379C10.2186 8.42191 10.336 8.66991 10.2837 8.91262L9.80331 11.143C9.75338 11.3748 9.56041 11.542 9.33515 11.542C4.20841 11.542 0.0460815 7.09121 0.0460815 1.59093C0.0460815 1.35125 0.200513 1.14328 0.418506 1.08941Z" fill="#FFDC91"/>
</svg>
